<mxfile host="app.diagrams.net" modified="2024-02-19T17:02:32.423Z" agent="Mozilla/5.0 (Windows NT 10.0; Win64; x64) AppleWebKit/537.36 (KHTML, like Gecko) Chrome/121.0.0.0 Safari/537.36" version="23.1.5" etag="2e6geMzbArZCVEPJ4fyX" type="github">
  <diagram name="PÃ¡gina-1" id="x6edmYXzKHLzqeNltHMa">
    <mxGraphModel>
      <root>
        <mxCell id="0" />
        <mxCell id="1" parent="0" />
      </root>
    </mxGraphModel>
  </diagram>
</mxfile>
